<svg xmlns="http://www.w3.org/2000/svg" width="434" height="362" viewBox="0 0 434 362">
  <g id="dead" transform="translate(-742.647 -339.754)">
    <g id="Path_4" data-name="Path 4" transform="translate(743.647 700.754) rotate(-90)" fill="#bc4749">
      <path d="M 72.5 72.5 L 72 72.5 L 0 72.5 L -0.5 72.5 L -0.5 72 L -0.5 0 L -0.5 -0.5 L 0 -0.5 L 72 -0.5 L 72.5 -0.5 L 72.5 0 L 72.5 72 L 72.5 72.5 Z" stroke="none"/>
      <path d="M 0 0 L 0 72 L 72 72 L 72 0 L 0 0 M -1 -1 L 0 -1 L 72 -1 L 73 -1 L 73 0 L 73 72 L 73 73 L 72 73 L 0 73 L -1 73 L -1 72 L -1 0 L -1 -1 Z" stroke="none" fill="#bc4749"/>
    </g>
    <g id="Path_5" data-name="Path 5" transform="translate(1103.647 700.754) rotate(-90)" fill="#bc4749">
      <path d="M 72.5 72.5 L 72 72.5 L 0 72.5 L -0.5 72.5 L -0.5 72 L -0.5 0 L -0.5 -0.5 L 0 -0.5 L 72 -0.5 L 72.5 -0.5 L 72.5 0 L 72.5 72 L 72.5 72.5 Z" stroke="none"/>
      <path d="M 0 0 L 0 72 L 72 72 L 72 0 L 0 0 M -1 -1 L 0 -1 L 72 -1 L 73 -1 L 73 0 L 73 72 L 73 73 L 72 73 L 0 73 L -1 73 L -1 72 L -1 0 L -1 -1 Z" stroke="none" fill="#bc4749"/>
    </g>
    <g id="Path_6" data-name="Path 6" transform="translate(743.647 412.754) rotate(-90)" fill="#bc4749">
      <path d="M 72.5 72.5 L 72 72.5 L 0 72.5 L -0.5 72.5 L -0.5 72 L -0.5 0 L -0.5 -0.5 L 0 -0.5 L 72 -0.5 L 72.5 -0.5 L 72.5 0 L 72.5 72 L 72.5 72.5 Z" stroke="none"/>
      <path d="M 0 0 L 0 72 L 72 72 L 72 0 L 0 0 M -1 -1 L 0 -1 L 72 -1 L 73 -1 L 73 0 L 73 72 L 73 73 L 72 73 L 0 73 L -1 73 L -1 72 L -1 0 L -1 -1 Z" stroke="none" fill="#bc4749"/>
    </g>
    <g id="Path_8" data-name="Path 8" transform="translate(815.647 628.754) rotate(-90)" fill="#bc4749">
      <path d="M 72.5 72.5 L 72 72.5 L 0 72.5 L -0.5 72.5 L -0.5 72 L -0.5 0 L -0.5 -0.5 L 0 -0.5 L 72 -0.5 L 72.5 -0.5 L 72.5 0 L 72.5 72 L 72.5 72.5 Z" stroke="none"/>
      <path d="M 0 0 L 0 72 L 72 72 L 72 0 L 0 0 M -1 -1 L 0 -1 L 72 -1 L 73 -1 L 73 0 L 73 72 L 73 73 L 72 73 L 0 73 L -1 73 L -1 72 L -1 0 L -1 -1 Z" stroke="none" fill="#bc4749"/>
    </g>
    <g id="Path_9" data-name="Path 9" transform="translate(887.647 628.754) rotate(-90)" fill="#bc4749">
      <path d="M 72.5 72.5 L 72 72.5 L 0 72.5 L -0.5 72.5 L -0.5 72 L -0.5 0 L -0.5 -0.5 L 0 -0.5 L 72 -0.5 L 72.5 -0.5 L 72.5 0 L 72.5 72 L 72.5 72.5 Z" stroke="none"/>
      <path d="M 0 0 L 0 72 L 72 72 L 72 0 L 0 0 M -1 -1 L 0 -1 L 72 -1 L 73 -1 L 73 0 L 73 72 L 73 73 L 72 73 L 0 73 L -1 73 L -1 72 L -1 0 L -1 -1 Z" stroke="none" fill="#bc4749"/>
    </g>
    <g id="Path_10" data-name="Path 10" transform="translate(959.647 628.754) rotate(-90)" fill="#bc4749">
      <path d="M 72.5 72.5 L 72 72.5 L 0 72.5 L -0.5 72.5 L -0.5 72 L -0.5 0 L -0.5 -0.5 L 0 -0.5 L 72 -0.5 L 72.5 -0.5 L 72.5 0 L 72.5 72 L 72.5 72.5 Z" stroke="none"/>
      <path d="M 0 0 L 0 72 L 72 72 L 72 0 L 0 0 M -1 -1 L 0 -1 L 72 -1 L 73 -1 L 73 0 L 73 72 L 73 73 L 72 73 L 0 73 L -1 73 L -1 72 L -1 0 L -1 -1 Z" stroke="none" fill="#bc4749"/>
    </g>
    <g id="Path_11" data-name="Path 11" transform="translate(1031.647 628.754) rotate(-90)" fill="#bc4749">
      <path d="M 72.5 72.5 L 72 72.5 L 0 72.5 L -0.5 72.5 L -0.5 72 L -0.5 0 L -0.5 -0.5 L 0 -0.5 L 72 -0.5 L 72.5 -0.5 L 72.5 0 L 72.5 72 L 72.5 72.5 Z" stroke="none"/>
      <path d="M 0 0 L 0 72 L 72 72 L 72 0 L 0 0 M -1 -1 L 0 -1 L 72 -1 L 73 -1 L 73 0 L 73 72 L 73 73 L 72 73 L 0 73 L -1 73 L -1 72 L -1 0 L -1 -1 Z" stroke="none" fill="#bc4749"/>
    </g>
    <g id="Path_12" data-name="Path 12" transform="translate(1103.647 412.754) rotate(-90)" fill="#bc4749">
      <path d="M 72.5 72.5 L 72 72.5 L 0 72.5 L -0.5 72.5 L -0.5 72 L -0.5 0 L -0.5 -0.5 L 0 -0.5 L 72 -0.5 L 72.5 -0.5 L 72.5 0 L 72.5 72 L 72.5 72.5 Z" stroke="none"/>
      <path d="M 0 0 L 0 72 L 72 72 L 72 0 L 0 0 M -1 -1 L 0 -1 L 72 -1 L 73 -1 L 73 0 L 73 72 L 73 73 L 72 73 L 0 73 L -1 73 L -1 72 L -1 0 L -1 -1 Z" stroke="none" fill="#bc4749"/>
    </g>
    <g id="Path_32" data-name="Path 32" transform="translate(815.647 412.754) rotate(-90)" fill="#bc4749">
      <path d="M 72.5 72.5 L 72 72.5 L 0 72.5 L -0.5 72.5 L -0.5 72 L -0.5 0 L -0.5 -0.5 L 0 -0.5 L 72 -0.5 L 72.5 -0.5 L 72.5 0 L 72.5 72 L 72.5 72.5 Z" stroke="none"/>
      <path d="M 0 0 L 0 72 L 72 72 L 72 0 L 0 0 M -1 -1 L 0 -1 L 72 -1 L 73 -1 L 73 0 L 73 72 L 73 73 L 72 73 L 0 73 L -1 73 L -1 72 L -1 0 L -1 -1 Z" stroke="none" fill="#bc4749"/>
    </g>
    <g id="Path_33" data-name="Path 33" transform="translate(1031.647 412.754) rotate(-90)" fill="#bc4749">
      <path d="M 72.5 72.5 L 72 72.5 L 0 72.5 L -0.5 72.5 L -0.5 72 L -0.5 0 L -0.5 -0.5 L 0 -0.5 L 72 -0.5 L 72.5 -0.5 L 72.5 0 L 72.5 72 L 72.5 72.5 Z" stroke="none"/>
      <path d="M 0 0 L 0 72 L 72 72 L 72 0 L 0 0 M -1 -1 L 0 -1 L 72 -1 L 73 -1 L 73 0 L 73 72 L 73 73 L 72 73 L 0 73 L -1 73 L -1 72 L -1 0 L -1 -1 Z" stroke="none" fill="#bc4749"/>
    </g>
  </g>
</svg>
