<svg xmlns="http://www.w3.org/2000/svg" xmlns:xlink="http://www.w3.org/1999/xlink" width="1920" height="1080" viewBox="0 0 1920 1080">
  <defs>
    <clipPath id="clip-path">
      <rect id="Rectangle_2" data-name="Rectangle 2" width="1920" height="1080" fill="#fff" stroke="#707070" stroke-width="1"/>
    </clipPath>
  </defs>
  <g id="Mask_Group_1" data-name="Mask Group 1" clip-path="url(#clip-path)">
    <g id="Trees" transform="translate(-249 -138)">
      <g id="trees-2" data-name="trees">
        <ellipse id="Ellipse_16" data-name="Ellipse 16" cx="157" cy="84" rx="157" ry="84" transform="translate(384 1275.752) rotate(180)" fill="#386641"/>
        <ellipse id="Ellipse_14" data-name="Ellipse 14" cx="206" cy="141" rx="206" ry="141" transform="translate(412 994.752) rotate(180)" fill="#386641"/>
        <ellipse id="Ellipse_5" data-name="Ellipse 5" cx="190.5" cy="151" rx="190.5" ry="151" transform="translate(504 351.752) rotate(180)" fill="#386641"/>
        <ellipse id="Ellipse_6" data-name="Ellipse 6" cx="190.5" cy="151" rx="190.5" ry="151" transform="translate(793 329.752) rotate(180)" fill="#6a994e"/>
        <ellipse id="Ellipse_7" data-name="Ellipse 7" cx="190.5" cy="151" rx="190.5" ry="151" transform="translate(412 594.752) rotate(180)" fill="#6a994e"/>
        <ellipse id="Ellipse_8" data-name="Ellipse 8" cx="190.5" cy="151" rx="190.5" ry="151" transform="translate(485 478.752) rotate(180)" fill="#a7c957"/>
        <ellipse id="Ellipse_13" data-name="Ellipse 13" cx="190.5" cy="151" rx="190.5" ry="151" transform="translate(384 817.752) rotate(180)" fill="#a7c957"/>
        <ellipse id="Ellipse_15" data-name="Ellipse 15" cx="151.5" cy="112.5" rx="151.5" ry="112.5" transform="translate(369 1172.752) rotate(180)" fill="#6a994e"/>
        <ellipse id="Ellipse_2" data-name="Ellipse 2" cx="190.5" cy="151" rx="190.5" ry="151" transform="translate(2113 423) rotate(180)" fill="#a7c957"/>
        <ellipse id="Ellipse_3" data-name="Ellipse 3" cx="190.5" cy="151" rx="190.5" ry="151" transform="translate(2028 302) rotate(180)" fill="#6a994e"/>
        <ellipse id="Ellipse_4" data-name="Ellipse 4" cx="190.5" cy="151" rx="190.5" ry="151" transform="translate(2337 604) rotate(180)" fill="#6a994e"/>
        <ellipse id="Ellipse_1" data-name="Ellipse 1" cx="190.5" cy="151" rx="190.5" ry="151" transform="translate(2316 354) rotate(180)" fill="#386641"/>
        <ellipse id="Ellipse_9" data-name="Ellipse 9" cx="190.5" cy="151" rx="190.5" ry="151" transform="translate(2373 835) rotate(180)" fill="#386641"/>
        <ellipse id="Ellipse_20" data-name="Ellipse 20" cx="129" cy="130.5" rx="129" ry="130.5" transform="translate(2307 538) rotate(180)" fill="#a7c957"/>
        <ellipse id="Ellipse_21" data-name="Ellipse 21" cx="127.5" cy="148.5" rx="127.5" ry="148.5" transform="translate(2026.645 1348.168) rotate(-120)" fill="#386641"/>
        <ellipse id="Ellipse_10" data-name="Ellipse 10" cx="190.5" cy="151" rx="190.5" ry="151" transform="translate(2360 1086) rotate(180)" fill="#a7c957"/>
        <ellipse id="Ellipse_19" data-name="Ellipse 19" cx="115.5" cy="125.5" rx="115.5" ry="125.5" transform="translate(2351 888) rotate(180)" fill="#6a994e"/>
        <ellipse id="Ellipse_22" data-name="Ellipse 22" cx="157" cy="84" rx="157" ry="84" transform="translate(384 1275.752) rotate(180)" fill="#386641"/>
        <ellipse id="Ellipse_23" data-name="Ellipse 23" cx="206" cy="141" rx="206" ry="141" transform="translate(412 994.752) rotate(180)" fill="#386641"/>
        <ellipse id="Ellipse_24" data-name="Ellipse 24" cx="190.5" cy="151" rx="190.5" ry="151" transform="translate(504 351.752) rotate(180)" fill="#386641"/>
        <ellipse id="Ellipse_25" data-name="Ellipse 25" cx="190.5" cy="151" rx="190.5" ry="151" transform="translate(793 329.752) rotate(180)" fill="#6a994e"/>
        <ellipse id="Ellipse_26" data-name="Ellipse 26" cx="190.5" cy="151" rx="190.5" ry="151" transform="translate(412 594.752) rotate(180)" fill="#6a994e"/>
        <ellipse id="Ellipse_27" data-name="Ellipse 27" cx="190.5" cy="151" rx="190.5" ry="151" transform="translate(485 478.752) rotate(180)" fill="#a7c957"/>
        <ellipse id="Ellipse_28" data-name="Ellipse 28" cx="190.5" cy="151" rx="190.5" ry="151" transform="translate(384 817.752) rotate(180)" fill="#a7c957"/>
        <ellipse id="Ellipse_29" data-name="Ellipse 29" cx="151.5" cy="112.5" rx="151.5" ry="112.5" transform="translate(369 1172.752) rotate(180)" fill="#6a994e"/>
        <ellipse id="Ellipse_31" data-name="Ellipse 31" cx="190.5" cy="151" rx="190.5" ry="151" transform="translate(2113 423) rotate(180)" fill="#a7c957"/>
        <ellipse id="Ellipse_32" data-name="Ellipse 32" cx="190.5" cy="151" rx="190.5" ry="151" transform="translate(2028 302) rotate(180)" fill="#6a994e"/>
        <ellipse id="Ellipse_33" data-name="Ellipse 33" cx="190.5" cy="151" rx="190.5" ry="151" transform="translate(2337 604) rotate(180)" fill="#6a994e"/>
        <ellipse id="Ellipse_34" data-name="Ellipse 34" cx="190.5" cy="151" rx="190.5" ry="151" transform="translate(2316 354) rotate(180)" fill="#386641"/>
        <ellipse id="Ellipse_35" data-name="Ellipse 35" cx="190.5" cy="151" rx="190.5" ry="151" transform="translate(2373 835) rotate(180)" fill="#386641"/>
        <ellipse id="Ellipse_36" data-name="Ellipse 36" cx="129" cy="130.5" rx="129" ry="130.5" transform="translate(2307 538) rotate(180)" fill="#a7c957"/>
        <ellipse id="Ellipse_37" data-name="Ellipse 37" cx="127.5" cy="148.5" rx="127.5" ry="148.5" transform="translate(2026.645 1348.168) rotate(-120)" fill="#386641"/>
        <ellipse id="Ellipse_38" data-name="Ellipse 38" cx="190.5" cy="151" rx="190.5" ry="151" transform="translate(2360 1086) rotate(180)" fill="#a7c957"/>
        <ellipse id="Ellipse_39" data-name="Ellipse 39" cx="115.5" cy="125.5" rx="115.5" ry="125.5" transform="translate(2351 888) rotate(180)" fill="#6a994e"/>
      </g>
    </g>
  </g>
</svg>
