<svg xmlns="http://www.w3.org/2000/svg" width="254.143" height="62.859" viewBox="0 0 254.143 62.859">
  <g id="bottombun" transform="translate(-1210.258 -660.74)">
    <path id="Path_38" data-name="Path 38" d="M287.188,400.694H34.225s-8.724,42.124,40.919,58.7a82.9,82.9,0,0,0,26.285,4.16H219.985a82.9,82.9,0,0,0,26.285-4.16c49.641-16.571,40.918-58.7,40.918-58.7Z" transform="translate(1176.623 260.046)" fill="#fe9738"/>
    <path id="Path_39" data-name="Path 39" d="M377.025,459.391a82.835,82.835,0,0,1-26.284,4.165h-13.4a82.844,82.844,0,0,0,26.289-4.165c49.637-16.571,40.914-58.691,40.914-58.691h13.4S426.669,442.819,377.025,459.391Z" transform="translate(1045.866 260.043)" fill="#fe860a"/>
  </g>
</svg>
