<svg xmlns="http://www.w3.org/2000/svg" width="254.019" height="40.237" viewBox="0 0 254.019 40.237">
  <g id="lettuce" transform="translate(-393.257 -703.898)">
    <path id="Path_174" data-name="Path 174" d="M287.65,320.7a11.638,11.638,0,0,1-19.07,8.942,18.609,18.609,0,0,0-12.687-4.612c-15.876,0-15.876,12.576-31.752,12.576s-15.876-12.576-31.752-12.576S176.514,337.6,160.639,337.6s-15.875-12.576-31.75-12.576S113.012,337.6,97.136,337.6s-15.876-12.576-31.751-12.576A18.606,18.606,0,0,0,52.7,329.637a11.638,11.638,0,0,1-19.07-8.942V297.366H287.649V320.7Z" transform="translate(359.624 406.532)" fill="#bbec6c"/>
    <path id="Path_175" data-name="Path 175" d="M466.429,297.368V320.7A11.634,11.634,0,0,1,448.875,330.7a11.409,11.409,0,0,0,5.712-10.006v-23.33Z" transform="translate(180.847 406.531)" fill="#a2e62e"/>
  </g>
</svg>
