<svg xmlns="http://www.w3.org/2000/svg" width="292.451" height="43.375" viewBox="0 0 292.451 43.375">
  <g id="patty" transform="translate(-454.104 -449.122)">
    <path id="Path_170" data-name="Path 170" d="M272.707,234.016H19.744A19.744,19.744,0,0,1,0,214.272v-3.887a19.744,19.744,0,0,1,19.744-19.744H272.707a19.744,19.744,0,0,1,19.744,19.744v3.887A19.744,19.744,0,0,1,272.707,234.016Z" transform="translate(454.104 258.481)" fill="#9e5528"/>
    <path id="Path_171" data-name="Path 171" d="M489.891,210.384v3.888a19.738,19.738,0,0,1-19.742,19.742H458.6a19.738,19.738,0,0,0,19.742-19.742v-3.888A19.742,19.742,0,0,0,458.6,190.642h11.553A19.743,19.743,0,0,1,489.891,210.384Z" transform="translate(256.662 258.481)" fill="#904d24"/>
  </g>
</svg>
