<svg xmlns="http://www.w3.org/2000/svg" width="292.451" height="43.378" viewBox="0 0 292.451 43.378">
  <g id="tomato" transform="translate(-508.104 -831.364)">
    <path id="Path_176" data-name="Path 176" d="M272.707,367.9H19.744A19.744,19.744,0,0,1,0,348.157V344.27a19.744,19.744,0,0,1,19.744-19.744H272.707a19.744,19.744,0,0,1,19.744,19.744v3.887A19.744,19.744,0,0,1,272.707,367.9Z" transform="translate(508.104 506.839)" fill="#e94444"/>
    <path id="Path_177" data-name="Path 177" d="M489.891,344.267v3.888A19.743,19.743,0,0,1,470.149,367.9H458.6a19.743,19.743,0,0,0,19.742-19.748v-3.888A19.742,19.742,0,0,0,458.6,324.525h11.553A19.742,19.742,0,0,1,489.891,344.267Z" transform="translate(310.662 506.839)" fill="#d83131"/>
  </g>
</svg>
