<svg xmlns="http://www.w3.org/2000/svg" width="287.194" height="107.799" viewBox="0 0 287.194 107.799">
  <g id="topbun" transform="translate(-1193.713 -433.97)">
    <path id="Path_46" data-name="Path 46" d="M148.2,2.483C49.587,3.91,16.455,57.4,5.517,88.482a16.413,16.413,0,0,0,15.533,21.8H275.344A16.447,16.447,0,0,0,290.813,88.3c-11-31.108-44.2-84.39-142.615-85.814Z" transform="translate(1189.131 431.49)" fill="#fe9738"/>
    <path id="Path_47" data-name="Path 47" d="M325.227,110.277h-1.406a16.439,16.439,0,0,0,3.271-16.536C316.085,62.628,282.89,9.349,184.474,7.925c-25.46.364-46.561,4.206-64.032,10.236C140.255,9.06,165.62,2.948,198.08,2.478,296.5,3.907,329.692,57.186,340.7,88.293a16.454,16.454,0,0,1-15.471,21.984Z" transform="translate(1139.249 431.492)" fill="#fe860a"/>
    <g id="Group_4" data-name="Group 4" transform="translate(1292.357 463.084)">
      <g id="Group_1" data-name="Group 1" transform="translate(0 0.483)">
        <path id="Path_48" data-name="Path 48" d="M182.072,70.077a4.272,4.272,0,0,1-3.753-6.3l3.827-7.082a4.271,4.271,0,1,1,7.515,4.061l-3.827,7.082A4.27,4.27,0,0,1,182.072,70.077Z" transform="translate(-177.805 -54.452)" fill="#e57917"/>
      </g>
      <g id="Group_2" data-name="Group 2" transform="translate(40.648)">
        <path id="Path_49" data-name="Path 49" d="M253.455,70.195a4.271,4.271,0,0,1-4.271-4.271v-8.05a4.271,4.271,0,0,1,8.542,0v8.05A4.271,4.271,0,0,1,253.455,70.195Z" transform="translate(-249.184 -53.603)" fill="#e57917"/>
      </g>
      <g id="Group_3" data-name="Group 3" transform="translate(77.362 0.542)">
        <path id="Path_50" data-name="Path 50" d="M321.969,70.062a4.269,4.269,0,0,1-3.7-2.129l-4.039-6.964a4.271,4.271,0,0,1,7.389-4.285l4.039,6.964a4.272,4.272,0,0,1-3.69,6.414Z" transform="translate(-313.655 -54.555)" fill="#e57917"/>
      </g>
    </g>
  </g>
</svg>
